# xmcd CD database file generated by Grip 3.3.0
# 
# Track frame offsets:
#       183
#       16078
#       33478
#       43355
#       49823
#       66798
#       79295
#       91528
#       110158
#       128115
#       148468
#       158913
#       172223
#       189128
#       202558
# 
# Disc length: 2879 seconds
# 
# Revision: 11
# Processed by: cddbd v1.5.1PL0 Copyright (c) Steve Scherf et al.
# Submitted via: Grip 3.3.0
# 
DISCID=cd0b3d0f
DTITLE=Howlin' Wolf - The London Sessions
DYEAR=1970
DGENRE=Blues
TTITLE0=I Ain't Superstitious
TTITLE1=Sittin' On Top Of The World
TTITLE2=Built For Comfort
TTITLE3=The Red Rooster (Rehearsal)
TTITLE4=The Red Rooster
TTITLE5=Highway 49
TTITLE6=Cause Of It All
TTITLE7=Poor Boy
TTITLE8=Commit A Crime
TTITLE9=Wang-Dang-Doodle
TTITLE10=Do The Do
TTITLE11=Worried About My Baby
TTITLE12=Rockin' Daddy
TTITLE13=What A Woman
TTITLE14=Who's Been Talking?
EXTD=YEAR: 1970
EXTT0=
EXTT1=
EXTT2=
EXTT3=
EXTT4=
EXTT5=
EXTT6=
EXTT7=
EXTT8=
EXTT9=
EXTT10=
EXTT11=
EXTT12=
EXTT13=
EXTT14=
PLAYORDER=
